#!Matlab matrix to amc conversion
:FULLY-SPECIFIED
:DEGREES
16
root 9.192140 16.357400 -29.724600 0.935943 1.634016 0.068482
lowerback -1.159006 2.525856 2.320329
upperback -2.232353 3.371864 -0.936982
thorax -1.403181 1.667646 -2.260856
lowerneck -17.982712 -1.199292 -1.900306
upperneck 32.944035 -0.795355 -0.777351
head 14.620072 -0.664094 -0.122421
rclavicle -0.000000 0.000000
rhumerus -33.698508 -5.930501 -78.058648
rradius 32.413780
rwrist -11.602517
rhand -7.604598 13.432526
rfingers 7.125020
rthumb 18.281190 -15.715415
lclavicle -0.000000 0.000000
lhumerus -50.575473 29.515922 56.166708
lradius 28.031645
lwrist -2.336002
lhand -3.584778 22.789355
lfingers 7.125020
lthumb 22.138013 51.484420
rfemur 7.263849 11.315589 28.135871
rtibia 18.966524
rfoot -6.962714 -18.004890
rtoes -8.851090
lfemur -36.813962 -8.819855 -15.705010
ltibia 28.684250
lfoot -14.237856 19.665489
ltoes -1.473383
17
root 9.191770 16.245600 -29.440800 0.943378 1.634016 0.062003
lowerback -1.539946 2.463339 0.646119
upperback -2.534827 3.301348 -1.290482
thorax -1.601052 1.646879 -1.636866
lowerneck -17.652324 -1.320130 -2.180967
upperneck 33.540665 -0.989554 -0.483904
head 14.846312 -0.740182 0.004483
rclavicle -0.000000 0.000000
rhumerus -35.369330 -8.436285 -77.173746
rradius 29.912041
rwrist -9.782437
rhand -7.550079 13.915804
rfingers 7.125020
rthumb 18.332813 -15.234240
lclavicle -0.000000 0.000000
lhumerus -49.165555 29.606462 57.111038
lradius 28.155219
lwrist -2.063909
lhand -3.548132 22.763723
lfingers 7.125020
lthumb 22.175402 51.465061
rfemur 5.211500 10.105354 26.609019
rtibia 25.369848
rfoot -5.032358 -17.082716
rtoes -9.856982
lfemur -35.122587 -8.455048 -18.078714
ltibia 29.665004
lfoot -13.428674 19.272277
ltoes -2.658541
18
root 9.208550 16.156600 -29.151500 0.944465 1.634016 0.049874
lowerback -1.924109 2.381011 -1.045551
upperback -2.845446 3.196905 -1.640314
thorax -1.803387 1.611019 -0.996865
lowerneck -17.284520 -1.442593 -2.464703
upperneck 34.143669 -1.187115 -0.187999
head 15.074020 -0.817378 0.134071
rclavicle -0.000000 0.000000
rhumerus -37.072884 -11.032390 -76.221645
rradius 27.336195
rwrist -7.915393
rhand -7.482686 14.412037
rfingers 7.125020
rthumb 18.396707 -14.736522
lclavicle -0.000000 0.000000
lhumerus -47.653463 29.688464 58.115988
lradius 28.279292
lwrist -1.894302
lhand -3.469991 22.738660
lfingers 7.125020
lthumb 22.252155 51.443072
rfemur 2.848154 8.821735 25.052762
rtibia 32.133023
rfoot -2.751255 -16.142311
rtoes -10.698303
lfemur -33.373754 -8.063804 -20.516804
ltibia 30.657511
lfoot -12.607223 18.773195
ltoes -4.174294
19
root 9.222000 16.080900 -28.855000 0.743705 1.634016 0.061615
lowerback -2.168022 2.365638 -1.743029
upperback -3.082309 3.184061 -1.735259
thorax -1.964254 1.618263 -0.726242
lowerneck -16.360372 -1.577442 -2.574912
upperneck 34.198335 -1.523553 0.120166
head 14.887726 -0.926585 0.243314
rclavicle -0.000000 0.000000
rhumerus -38.714508 -11.875940 -75.686809
rradius 26.564795
rwrist -6.975101
rhand -5.754365 12.940773
rfingers 7.125020
rthumb 20.059756 -15.996129
lclavicle -0.000000 0.000000
lhumerus -44.866436 28.522910 60.767240
lradius 29.778721
lwrist -1.627077
lhand -2.373797 23.039844
lfingers 7.125020
lthumb 23.311237 51.588399
rfemur -3.469224 6.445265 23.703272
rtibia 40.660062
rfoot -0.015357 -15.276429
rtoes -10.240471
lfemur -31.107334 -7.837058 -21.661469
ltibia 30.345741
lfoot -14.154486 18.273623
ltoes -5.013030
20
root 9.232280 16.013400 -28.551200 0.612042 1.634016 0.066025
lowerback -2.419225 2.358720 -2.298457
upperback -3.310290 3.177766 -1.822739
thorax -2.110378 1.627706 -0.471158
lowerneck -15.514899 -1.709649 -2.659361
upperneck 34.257834 -1.852458 0.402238
head 14.708174 -1.033513 0.327236
rclavicle -0.000000 0.000000
rhumerus -40.313001 -12.646374 -75.200805
rradius 25.917871
rwrist -6.140530
rhand -4.072092 11.732295
rfingers 7.125020
rthumb 21.678404 -17.008811
lclavicle -0.000000 0.000000
lhumerus -42.337630 27.428083 63.282120
lradius 31.216991
lwrist -1.347950
lhand -1.298504 23.297070
lfingers 7.125020
lthumb 24.350594 51.691426
rfemur -9.614618 4.276351 22.574638
rtibia 48.414823
rfoot 0.957654 -14.725645
rtoes -9.814962
lfemur -28.942568 -7.656112 -22.663766
ltibia 30.150634
lfoot -15.648660 17.840322
ltoes -5.538402
21
root 9.239730 15.970900 -28.241000 0.509416 1.634016 0.065928
lowerback -2.681214 2.359419 -2.828157
upperback -3.536374 3.177382 -1.907702
thorax -2.245439 1.640381 -0.218204
lowerneck -14.704882 -1.841292 -2.723848
upperneck 34.322855 -2.180980 0.680877
head 14.532920 -1.139996 0.397693
rclavicle -0.000000 0.000000
rhumerus -41.913014 -13.370893 -74.747262
rradius 25.329731
rwrist -5.348707
rhand -2.368890 10.604986
rfingers 7.125020
rthumb 23.317033 -17.933226
lclavicle -0.000000 0.000000
lhumerus -39.777718 26.323630 65.806983
lradius 32.736916
lwrist -0.987114
lhand -0.199271 23.517221
lfingers 7.125020
lthumb 25.413467 51.754979
rfemur -15.788365 2.114101 21.473872
rtibia 56.104752
rfoot 0.629047 -14.215443
rtoes -9.364920
lfemur -26.797307 -7.491825 -23.646332
ltibia 30.020979
lfoot -17.163317 17.450276
ltoes -6.061659
22
root 9.241850 15.946000 -27.925100 0.615943 1.634016 -0.038272
lowerback -2.461348 2.047964 -2.669225
upperback -3.435744 2.744961 -1.488132
thorax -2.230322 1.425864 0.098627
lowerneck -14.768336 -1.580961 -2.424265
upperneck 34.692257 -1.720373 0.270595
head 14.727162 -0.970515 0.229538
rclavicle -0.000000 0.000000
rhumerus -42.146990 -12.495337 -74.991078
rradius 26.276148
rwrist -6.182093
rhand -2.711591 11.148559
rfingers 7.125020
rthumb 22.986013 -17.396404
lclavicle -0.000000 0.000000
lhumerus -38.800884 24.437816 66.875829
lradius 36.061003
lwrist -0.627377
lhand -1.117273 22.599845
lfingers 7.125020
lthumb 24.527285 50.957756
rfemur -19.836490 1.967338 21.528733
rtibia 54.178090
rfoot -3.095714 -15.112234
rtoes -7.583319
lfemur -24.736449 -8.029899 -23.819309
ltibia 29.968178
lfoot -18.833071 17.770714
ltoes -6.782853
23
root 9.242890 15.925900 -27.604900 0.690901 1.634016 -0.064331
lowerback -2.237501 1.766849 -2.531800
upperback -3.331380 2.345126 -1.092862
thorax -2.216953 1.228613 0.401488
lowerneck -14.823377 -1.323771 -2.168424
upperneck 35.037288 -1.266081 -0.108486
head 14.908090 -0.803170 0.091168
rclavicle -0.000000 0.000000
rhumerus -42.327840 -11.726925 -75.212059
rradius 26.911641
rwrist -6.899876
rhand -3.067679 11.536413
rfingers 7.125020
rthumb 22.642181 -17.026215
lclavicle -0.000000 0.000000
lhumerus -37.941758 22.666802 67.872416
lradius 38.949767
lwrist -0.268943
lhand -2.011463 21.737320
lfingers 7.125020
lthumb 23.664319 50.212650
rfemur -23.390355 1.917258 21.553425
rtibia 52.167763
rfoot -5.993621 -15.850162
rtoes -6.199915
lfemur -22.772969 -8.480238 -23.994992
ltibia 29.805796
lfoot -20.245921 18.062664
ltoes -7.284270
24
root 9.243090 15.943100 -27.273700 0.745797 1.634016 -0.072513
lowerback -2.007220 1.493684 -2.405309
upperback -3.221255 1.952239 -0.705641
thorax -2.205007 1.035234 0.700585
lowerneck -14.874105 -1.067052 -1.939817
upperneck 35.362894 -0.812889 -0.471427
head 15.078860 -0.636190 -0.029029
rclavicle -0.000000 0.000000
rhumerus -42.464922 -11.022685 -75.419567
rradius 27.395161
rwrist -7.567980
rhand -3.445240 11.858391
rfingers 7.125020
rthumb 22.277736 -16.733472
lclavicle -0.000000 0.000000
lhumerus -37.145199 20.946746 68.831312
lradius 41.621278
lwrist 0.100867
lhand -2.911392 20.913269
lfingers 7.125020
lthumb 22.796094 49.505656
rfemur -26.651543 1.959255 21.549574
rtibia 49.856199
rfoot -8.486084 -16.529840
rtoes -5.015477
lfemur -20.828389 -8.876772 -24.180978
ltibia 29.507477
lfoot -21.502248 18.331937
ltoes -7.647755
25
root 9.241190 15.944900 -26.946700 0.789059 1.634016 -0.081740
lowerback -1.767980 1.206711 -2.280025
upperback -3.103226 1.541104 -0.310549
thorax -2.194197 0.832599 1.005994
lowerneck -14.924299 -0.808137 -1.723690
upperneck 35.673745 -0.355593 -0.832645
head 15.242450 -0.467806 -0.141140
rclavicle -0.000000 0.000000
rhumerus -42.565329 -10.343233 -75.622397
rradius 27.847646
rwrist -8.247768
rhand -3.852847 12.189078
rfingers 7.125020
rthumb 21.884405 -16.447645
lclavicle -0.000000 0.000000
lhumerus -36.360081 19.215644 69.785778
lradius 44.277205
lwrist 0.495135
lhand -3.846800 20.112043
lfingers 7.125020
lthumb 21.893961 48.823487
rfemur -29.805041 2.097191 21.516927
rtibia 46.993228
rfoot -10.935552 -17.243945
rtoes -3.859431
lfemur -18.824985 -9.249379 -24.385306
ltibia 29.024803
lfoot -22.691308 18.583891
ltoes -7.932639
